# xmcd
#
# Track frame offsets: 
#        150
#        18947
#        39144
#        61918
#        88285
#        114177
#        127132
#        141729
#        160216
#        179375
#        204442
#        226215
#        242390
#        262696
#        290947
#        318152
#
# Disc length: 4599 seconds
#
# Revision: 1
# Processed by: cddbd v1.5.2PL0 Copyright (c) Steve Scherf et al.
# Submitted via: ExactAudioCopyFreeDBPlugin 1.0
#
DISCID=da11f510
DTITLE=Big Daddy Wilson and Doc Fozz - ...doin´ it right
DYEAR=2007
DGENRE=Blues
TTITLE0=Ain´t No Slave
TTITLE1=Doin´It Right
TTITLE2=Keep On Trying
TTITLE3=Why
TTITLE4=True Love
TTITLE5=Show Dog
TTITLE6=Alberta
TTITLE7=Walking Blues
TTITLE8=Rest Of My Life
TTITLE9=Rail Road Work Song
TTITLE10=Intercity Train
TTITLE11=Summertime Intro
TTITLE12=Summertime
TTITLE13=Big Boss Man
TTITLE14=Where You Been So Long
TTITLE15=Thanks For The Night
EXTD=
EXTT0=Ain´t No Slave
EXTT1=
EXTT2=
EXTT3=
EXTT4=
EXTT5=
EXTT6=
EXTT7=
EXTT8=
EXTT9=
EXTT10=
EXTT11=
EXTT12=
EXTT13=
EXTT14=
EXTT15=
PLAYORDER=
